<?xml version="1.0" standalone="no"?>
<!DOCTYPE svg PUBLIC "-//W3C//DTD SVG 20010904//EN"
 "http://www.w3.org/TR/2001/REC-SVG-20010904/DTD/svg10.dtd">
<svg version="1.0" xmlns="http://www.w3.org/2000/svg"
 width="150.000000pt" height="150.000000pt" viewBox="0 0 150.000000 150.000000"
 preserveAspectRatio="xMidYMid meet">
<metadata>
Created by potrace 1.14, written by Peter Selinger 2001-2017
</metadata>
<g transform="translate(0.000000,150.000000) scale(0.100000,-0.100000)"
fill="#000000" stroke="none">
<path d="M0 750 l0 -750 750 0 750 0 0 750 0 750 -750 0 -750 0 0 -750z m881
337 c112 -54 202 -176 216 -295 7 -63 -11 -161 -42 -222 -26 -51 -104 -128
-156 -155 -91 -47 -198 -56 -283 -24 -53 19 -106 66 -106 93 0 7 -12 25 -26
40 -22 21 -24 26 -9 26 14 0 15 3 5 15 -7 8 -16 12 -21 10 -4 -3 -15 8 -24 24
-17 33 -20 55 -5 31 8 -12 10 -9 10 13 0 15 9 36 20 47 19 19 20 19 20 1 0
-10 -7 -21 -15 -25 -18 -7 -20 -47 -3 -64 16 -16 45 -15 51 1 3 6 6 1 6 -13 1
-18 7 -26 21 -27 18 -2 19 0 5 13 -8 9 -15 21 -15 27 0 8 3 7 9 -2 5 -7 13
-11 19 -7 6 3 12 2 14 -3 3 -9 28 -14 61 -12 12 1 17 9 17 29 0 15 6 34 12 40
10 10 10 15 1 20 -6 4 -13 18 -14 31 -6 38 -27 37 -31 -1 l-3 -33 -17 35 c-12
26 -14 36 -5 42 8 5 6 11 -8 22 -11 8 -24 12 -29 9 -5 -4 -6 -1 -2 6 4 6 2 18
-4 26 -10 12 -10 15 -1 15 8 0 10 8 6 19 -9 30 35 66 50 41 3 -5 16 -9 28 -9
12 0 31 -2 42 -5 11 -4 26 -2 34 3 13 8 13 12 1 26 -13 15 -12 19 6 34 11 9
18 23 16 33 -2 9 2 19 7 23 17 10 13 38 -4 31 -9 -3 -18 1 -21 9 -8 20 -83 16
-114 -8 -18 -14 -26 -15 -29 -6 -2 7 1 15 8 17 6 2 9 8 5 13 -3 5 2 9 10 9 9
0 16 5 16 10 0 6 12 10 28 11 15 0 21 3 15 6 -22 8 -14 22 20 32 53 17 147 7
208 -22z m-371 -141 c0 -3 -4 -8 -10 -11 -5 -3 -10 -1 -10 4 0 6 5 11 10 11 6
0 10 -2 10 -4z m16 -101 c3 -8 -1 -21 -9 -29 -13 -14 -16 -14 -21 -1 -7 18 3
45 15 45 5 0 12 -7 15 -15z m24 -113 c0 -13 -12 -22 -22 -16 -10 6 -1 24 13
24 5 0 9 -4 9 -8z m6 -68 c-3 -9 -6 -18 -6 -20 0 -2 -4 -4 -9 -4 -5 0 -7 9 -4
20 3 11 10 20 15 20 6 0 7 -7 4 -16z m-39 -26 c-3 -8 -6 -5 -6 6 -1 11 2 17 5
13 3 -3 4 -12 1 -19z"/>
<path d="M808 933 c-8 -10 -18 -31 -22 -46 -8 -33 -46 -51 -89 -41 -21 4 -27
3 -22 -5 8 -14 -14 -43 -27 -35 -15 9 -36 -15 -31 -36 6 -24 32 -34 49 -19 11
9 19 8 33 -5 13 -12 21 -14 26 -6 4 6 -1 17 -11 24 -10 8 -15 20 -11 30 7 18
32 22 42 6 15 -24 85 1 85 30 0 10 4 10 16 -1 10 -8 12 -15 5 -17 -6 -2 -11
-23 -11 -47 0 -36 4 -45 21 -50 14 -5 19 -13 16 -26 -6 -22 11 -15 31 13 9 13
20 16 38 12 24 -6 29 1 25 34 -1 6 2 12 8 12 5 0 4 11 -2 25 -7 14 -20 25 -29
25 -21 0 -33 19 -30 45 2 12 -4 34 -12 50 -9 17 -16 26 -16 21 0 -4 -11 -1
-25 8 -31 20 -38 20 -57 -1z m-1 -119 c-9 -9 -28 6 -21 18 4 6 10 6 17 -1 6
-6 8 -13 4 -17z"/>
<path d="M986 705 c-11 -8 -20 -24 -21 -35 -2 -23 16 -42 30 -32 17 12 38 60
31 71 -9 14 -17 13 -40 -4z"/>
<path d="M892 618 c-8 -8 -9 -15 -1 -25 17 -20 27 -16 27 12 0 27 -8 31 -26
13z"/>
</g>
</svg>
